<?xml version="1.0" encoding="UTF-8" standalone="no"?><svg xmlns="http://www.w3.org/2000/svg" xmlns:xlink="http://www.w3.org/1999/xlink" contentStyleType="text/css" height="341px" preserveAspectRatio="none" style="width:770px;height:341px;background:#FFFFFF;" version="1.1" viewBox="0 0 770 341" width="770px" zoomAndPan="magnify"><defs/><g><rect height="26.2969" style="stroke:#00000000;stroke-width:1.0;fill:none;" width="214" x="279.75" y="10"/><text fill="#000000" font-family="sans-serif" font-size="14" font-weight="bold" lengthAdjust="spacing" textLength="204" x="284.75" y="27.9951">5. Revoke Location Share</text><line style="stroke:#181818;stroke-width:0.5;stroke-dasharray:5.0,5.0;" x1="33" x2="33" y1="121.5938" y2="258.125"/><line style="stroke:#181818;stroke-width:0.5;stroke-dasharray:5.0,5.0;" x1="224.5" x2="224.5" y1="121.5938" y2="258.125"/><line style="stroke:#181818;stroke-width:0.5;stroke-dasharray:5.0,5.0;" x1="623.5" x2="623.5" y1="121.5938" y2="258.125"/><line style="stroke:#181818;stroke-width:0.5;stroke-dasharray:5.0,5.0;" x1="723.5" x2="723.5" y1="121.5938" y2="258.125"/><text fill="#000000" font-family="sans-serif" font-size="14" lengthAdjust="spacing" textLength="39" x="11" y="118.292">User2</text><ellipse cx="33.5" cy="59.7969" fill="#E2E2F0" rx="16" ry="16" style="stroke:#181818;stroke-width:1.5;"/><path d="M33.5,79.7969 C37.5,79.7969 40.5,79.7969 44.5,75.7969 C52.5,75.7969 60.5,83.7969 60.5,91.7969 L60.5,95.7969 C60.5,99.7969 56.5,103.7969 52.5,103.7969 L14.5,103.7969 C10.5,103.7969 6.5,99.7969 6.5,95.7969 L6.5,91.7969 C6.5,83.7969 14.5,75.7969 22.5,75.7969 C26.5,79.7969 29.5,79.7969 33.5,79.7969 " fill="#E2E2F0" style="stroke:#181818;stroke-width:1.5;"/><text fill="#000000" font-family="sans-serif" font-size="14" lengthAdjust="spacing" textLength="39" x="11" y="270.1201">User2</text><ellipse cx="33.5" cy="290.9219" fill="#E2E2F0" rx="16" ry="16" style="stroke:#181818;stroke-width:1.5;"/><path d="M33.5,310.9219 C37.5,310.9219 40.5,310.9219 44.5,306.9219 C52.5,306.9219 60.5,314.9219 60.5,322.9219 L60.5,326.9219 C60.5,330.9219 56.5,334.9219 52.5,334.9219 L14.5,334.9219 C10.5,334.9219 6.5,330.9219 6.5,326.9219 L6.5,322.9219 C6.5,314.9219 14.5,306.9219 22.5,306.9219 C26.5,310.9219 29.5,310.9219 33.5,310.9219 " fill="#E2E2F0" style="stroke:#181818;stroke-width:1.5;"/><rect fill="#E2E2F0" height="30.2969" rx="2.5" ry="2.5" style="stroke:#181818;stroke-width:0.5;" width="222" x="113.5" y="90.2969"/><text fill="#000000" font-family="sans-serif" font-size="14" lengthAdjust="spacing" textLength="208" x="120.5" y="110.292">Location History App (User 2)</text><rect fill="#E2E2F0" height="30.2969" rx="2.5" ry="2.5" style="stroke:#181818;stroke-width:0.5;" width="222" x="113.5" y="257.125"/><text fill="#000000" font-family="sans-serif" font-size="14" lengthAdjust="spacing" textLength="208" x="120.5" y="277.1201">Location History App (User 2)</text><text fill="#000000" font-family="sans-serif" font-size="14" lengthAdjust="spacing" textLength="84" x="578.5" y="118.292">Pod (User 2)</text><path d="M605.5,69.2969 C605.5,59.2969 623.5,59.2969 623.5,59.2969 C623.5,59.2969 641.5,59.2969 641.5,69.2969 L641.5,95.2969 C641.5,105.2969 623.5,105.2969 623.5,105.2969 C623.5,105.2969 605.5,105.2969 605.5,95.2969 L605.5,69.2969 " fill="#E2E2F0" style="stroke:#181818;stroke-width:1.5;"/><path d="M605.5,69.2969 C605.5,79.2969 623.5,79.2969 623.5,79.2969 C623.5,79.2969 641.5,79.2969 641.5,69.2969 " fill="none" style="stroke:#181818;stroke-width:1.5;"/><text fill="#000000" font-family="sans-serif" font-size="14" lengthAdjust="spacing" textLength="84" x="578.5" y="270.1201">Pod (User 2)</text><path d="M605.5,283.4219 C605.5,273.4219 623.5,273.4219 623.5,273.4219 C623.5,273.4219 641.5,273.4219 641.5,283.4219 L641.5,309.4219 C641.5,319.4219 623.5,319.4219 623.5,319.4219 C623.5,319.4219 605.5,319.4219 605.5,309.4219 L605.5,283.4219 " fill="#E2E2F0" style="stroke:#181818;stroke-width:1.5;"/><path d="M605.5,283.4219 C605.5,293.4219 623.5,293.4219 623.5,293.4219 C623.5,293.4219 641.5,293.4219 641.5,283.4219 " fill="none" style="stroke:#181818;stroke-width:1.5;"/><text fill="#000000" font-family="sans-serif" font-size="14" lengthAdjust="spacing" textLength="85" x="678.5" y="118.292">Pod (User 1)</text><path d="M706,69.2969 C706,59.2969 724,59.2969 724,59.2969 C724,59.2969 742,59.2969 742,69.2969 L742,95.2969 C742,105.2969 724,105.2969 724,105.2969 C724,105.2969 706,105.2969 706,95.2969 L706,69.2969 " fill="#E2E2F0" style="stroke:#181818;stroke-width:1.5;"/><path d="M706,69.2969 C706,79.2969 724,79.2969 724,79.2969 C724,79.2969 742,79.2969 742,69.2969 " fill="none" style="stroke:#181818;stroke-width:1.5;"/><text fill="#000000" font-family="sans-serif" font-size="14" lengthAdjust="spacing" textLength="85" x="678.5" y="270.1201">Pod (User 1)</text><path d="M706,283.4219 C706,273.4219 724,273.4219 724,273.4219 C724,273.4219 742,273.4219 742,283.4219 L742,309.4219 C742,319.4219 724,319.4219 724,319.4219 C724,319.4219 706,319.4219 706,309.4219 L706,283.4219 " fill="#E2E2F0" style="stroke:#181818;stroke-width:1.5;"/><path d="M706,283.4219 C706,293.4219 724,293.4219 724,293.4219 C724,293.4219 742,293.4219 742,283.4219 " fill="none" style="stroke:#181818;stroke-width:1.5;"/><polygon fill="#181818" points="44.5,148.7266,34.5,152.7266,44.5,156.7266,40.5,152.7266" style="stroke:#181818;stroke-width:1.0;"/><line style="stroke:#181818;stroke-width:1.0;" x1="38.5" x2="223.5" y1="152.7266" y2="152.7266"/><text fill="#000000" font-family="sans-serif" font-size="13" font-weight="bold" lengthAdjust="spacing" textLength="9" x="50.5" y="147.6606">1</text><text fill="#000000" font-family="sans-serif" font-size="13" lengthAdjust="spacing" textLength="154" x="63.5" y="147.6606">Clicks on Revoke Button</text><polygon fill="#181818" points="611.5,177.8594,621.5,181.8594,611.5,185.8594,615.5,181.8594" style="stroke:#181818;stroke-width:1.0;"/><line style="stroke:#181818;stroke-width:1.0;" x1="224.5" x2="617.5" y1="181.8594" y2="181.8594"/><text fill="#000000" font-family="sans-serif" font-size="13" font-weight="bold" lengthAdjust="spacing" textLength="9" x="231.5" y="176.7935">2</text><text fill="#000000" font-family="sans-serif" font-size="13" lengthAdjust="spacing" textLength="287" x="244.5" y="176.7935">GET+PUT: Removes "Read" access from .acl</text><polygon fill="#181818" points="712,206.9922,722,210.9922,712,214.9922,716,210.9922" style="stroke:#181818;stroke-width:1.0;"/><line style="stroke:#181818;stroke-width:1.0;" x1="224.5" x2="718" y1="210.9922" y2="210.9922"/><text fill="#000000" font-family="sans-serif" font-size="13" font-weight="bold" lengthAdjust="spacing" textLength="8" x="231.5" y="205.9263">3</text><text fill="#000000" font-family="sans-serif" font-size="13" lengthAdjust="spacing" textLength="338" x="243.5" y="205.9263">PATCH: Deletes "GrantedAccessTo" triple from Inbox</text><polygon fill="#181818" points="611.5,236.125,621.5,240.125,611.5,244.125,615.5,240.125" style="stroke:#181818;stroke-width:1.0;"/><line style="stroke:#181818;stroke-width:1.0;" x1="224.5" x2="617.5" y1="240.125" y2="240.125"/><text fill="#000000" font-family="sans-serif" font-size="13" font-weight="bold" lengthAdjust="spacing" textLength="9" x="231.5" y="235.0591">4</text><text fill="#000000" font-family="sans-serif" font-size="13" lengthAdjust="spacing" textLength="362" x="244.5" y="235.0591">PATCH: Deletes "YouGrantedAccessTo" triple from Inbox</text><!--MD5=[1074d415a3e6b8e60406ab38a49e88d5]
@startuml
title 5. Revoke Location Share
skinparam actorStyle awesome
actor User2
participant "Location History App (User 2)"
database "Pod (User 2)"
database "Pod (User 1)"
autonumber 1 
User2<-"Location History App (User 2)":Clicks on Revoke Button
"Pod (User 2)"<-"Location History App (User 2)": GET+PUT: Removes "Read" access from .acl
"Location History App (User 2)"->"Pod (User 1)": PATCH: Deletes "GrantedAccessTo" triple from Inbox
"Location History App (User 2)"->"Pod (User 2)": PATCH: Deletes "YouGrantedAccessTo" triple from Inbox
@enduml

PlantUML version 1.2022.6beta5(Unknown compile time)
(GPL source distribution)
Java Runtime: Java(TM) SE Runtime Environment
JVM: Java HotSpot(TM) 64-Bit Server VM
Default Encoding: UTF-8
Language: en
Country: US
--></g></svg>