<?xml version="1.0" encoding="UTF-8" standalone="no"?><svg xmlns="http://www.w3.org/2000/svg" xmlns:xlink="http://www.w3.org/1999/xlink" contentStyleType="text/css" height="386px" preserveAspectRatio="none" style="width:770px;height:386px;background:#FFFFFF;" version="1.1" viewBox="0 0 770 386" width="770px" zoomAndPan="magnify"><defs/><g><rect height="26.2969" style="stroke:#00000000;stroke-width:1.0;fill:none;" width="219" x="277" y="10"/><text fill="#000000" font-family="sans-serif" font-size="14" font-weight="bold" lengthAdjust="spacing" textLength="209" x="282" y="27.9951">4. Fetch Friend's Location</text><line style="stroke:#181818;stroke-width:0.5;stroke-dasharray:5.0,5.0;" x1="33" x2="33" y1="121.5938" y2="302.3906"/><line style="stroke:#181818;stroke-width:0.5;stroke-dasharray:5.0,5.0;" x1="285" x2="285" y1="121.5938" y2="302.3906"/><line style="stroke:#181818;stroke-width:0.5;stroke-dasharray:5.0,5.0;" x1="623" x2="623" y1="121.5938" y2="302.3906"/><line style="stroke:#181818;stroke-width:0.5;stroke-dasharray:5.0,5.0;" x1="724" x2="724" y1="121.5938" y2="302.3906"/><text fill="#000000" font-family="sans-serif" font-size="14" lengthAdjust="spacing" textLength="40" x="10.5" y="118.292">User1</text><ellipse cx="33.5" cy="59.7969" fill="#E2E2F0" rx="16" ry="16" style="stroke:#181818;stroke-width:1.5;"/><path d="M33.5,79.7969 C37.5,79.7969 40.5,79.7969 44.5,75.7969 C52.5,75.7969 60.5,83.7969 60.5,91.7969 L60.5,95.7969 C60.5,99.7969 56.5,103.7969 52.5,103.7969 L14.5,103.7969 C10.5,103.7969 6.5,99.7969 6.5,95.7969 L6.5,91.7969 C6.5,83.7969 14.5,75.7969 22.5,75.7969 C26.5,79.7969 29.5,79.7969 33.5,79.7969 " fill="#E2E2F0" style="stroke:#181818;stroke-width:1.5;"/><text fill="#000000" font-family="sans-serif" font-size="14" lengthAdjust="spacing" textLength="40" x="10.5" y="314.3857">User1</text><ellipse cx="33.5" cy="335.1875" fill="#E2E2F0" rx="16" ry="16" style="stroke:#181818;stroke-width:1.5;"/><path d="M33.5,355.1875 C37.5,355.1875 40.5,355.1875 44.5,351.1875 C52.5,351.1875 60.5,359.1875 60.5,367.1875 L60.5,371.1875 C60.5,375.1875 56.5,379.1875 52.5,379.1875 L14.5,379.1875 C10.5,379.1875 6.5,375.1875 6.5,371.1875 L6.5,367.1875 C6.5,359.1875 14.5,351.1875 22.5,351.1875 C26.5,355.1875 29.5,355.1875 33.5,355.1875 " fill="#E2E2F0" style="stroke:#181818;stroke-width:1.5;"/><rect fill="#E2E2F0" height="30.2969" rx="2.5" ry="2.5" style="stroke:#181818;stroke-width:0.5;" width="223" x="174" y="90.2969"/><text fill="#000000" font-family="sans-serif" font-size="14" lengthAdjust="spacing" textLength="209" x="181" y="110.292">Location History App (User 1)</text><rect fill="#E2E2F0" height="30.2969" rx="2.5" ry="2.5" style="stroke:#181818;stroke-width:0.5;" width="223" x="174" y="301.3906"/><text fill="#000000" font-family="sans-serif" font-size="14" lengthAdjust="spacing" textLength="209" x="181" y="321.3857">Location History App (User 1)</text><text fill="#000000" font-family="sans-serif" font-size="14" lengthAdjust="spacing" textLength="85" x="578" y="118.292">Pod (User 1)</text><path d="M605.5,69.2969 C605.5,59.2969 623.5,59.2969 623.5,59.2969 C623.5,59.2969 641.5,59.2969 641.5,69.2969 L641.5,95.2969 C641.5,105.2969 623.5,105.2969 623.5,105.2969 C623.5,105.2969 605.5,105.2969 605.5,95.2969 L605.5,69.2969 " fill="#E2E2F0" style="stroke:#181818;stroke-width:1.5;"/><path d="M605.5,69.2969 C605.5,79.2969 623.5,79.2969 623.5,79.2969 C623.5,79.2969 641.5,79.2969 641.5,69.2969 " fill="none" style="stroke:#181818;stroke-width:1.5;"/><text fill="#000000" font-family="sans-serif" font-size="14" lengthAdjust="spacing" textLength="85" x="578" y="314.3857">Pod (User 1)</text><path d="M605.5,327.6875 C605.5,317.6875 623.5,317.6875 623.5,317.6875 C623.5,317.6875 641.5,317.6875 641.5,327.6875 L641.5,353.6875 C641.5,363.6875 623.5,363.6875 623.5,363.6875 C623.5,363.6875 605.5,363.6875 605.5,353.6875 L605.5,327.6875 " fill="#E2E2F0" style="stroke:#181818;stroke-width:1.5;"/><path d="M605.5,327.6875 C605.5,337.6875 623.5,337.6875 623.5,337.6875 C623.5,337.6875 641.5,337.6875 641.5,327.6875 " fill="none" style="stroke:#181818;stroke-width:1.5;"/><text fill="#000000" font-family="sans-serif" font-size="14" lengthAdjust="spacing" textLength="84" x="679" y="118.292">Pod (User 2)</text><path d="M706,69.2969 C706,59.2969 724,59.2969 724,59.2969 C724,59.2969 742,59.2969 742,69.2969 L742,95.2969 C742,105.2969 724,105.2969 724,105.2969 C724,105.2969 706,105.2969 706,95.2969 L706,69.2969 " fill="#E2E2F0" style="stroke:#181818;stroke-width:1.5;"/><path d="M706,69.2969 C706,79.2969 724,79.2969 724,79.2969 C724,79.2969 742,79.2969 742,69.2969 " fill="none" style="stroke:#181818;stroke-width:1.5;"/><text fill="#000000" font-family="sans-serif" font-size="14" lengthAdjust="spacing" textLength="84" x="679" y="314.3857">Pod (User 2)</text><path d="M706,327.6875 C706,317.6875 724,317.6875 724,317.6875 C724,317.6875 742,317.6875 742,327.6875 L742,353.6875 C742,363.6875 724,363.6875 724,363.6875 C724,363.6875 706,363.6875 706,353.6875 L706,327.6875 " fill="#E2E2F0" style="stroke:#181818;stroke-width:1.5;"/><path d="M706,327.6875 C706,337.6875 724,337.6875 724,337.6875 C724,337.6875 742,337.6875 742,327.6875 " fill="none" style="stroke:#181818;stroke-width:1.5;"/><polygon fill="#181818" points="611.5,163.8594,621.5,167.8594,611.5,171.8594,615.5,167.8594" style="stroke:#181818;stroke-width:1.0;"/><line style="stroke:#181818;stroke-width:1.0;" x1="285.5" x2="617.5" y1="167.8594" y2="167.8594"/><text fill="#000000" font-family="sans-serif" font-size="13" font-weight="bold" lengthAdjust="spacing" textLength="9" x="292.5" y="155.2271">1</text><text fill="#000000" font-family="sans-serif" font-size="13" lengthAdjust="spacing" textLength="238" x="305.5" y="147.6606">Reads "GrantedAccessTo" triple from</text><text fill="#000000" font-family="sans-serif" font-size="13" lengthAdjust="spacing" textLength="297" x="309.5" y="162.7935">Inbox for WebID and Location-Data-Container"</text><polygon fill="#181818" points="712,192.9922,722,196.9922,712,200.9922,716,196.9922" style="stroke:#181818;stroke-width:1.0;"/><line style="stroke:#181818;stroke-width:1.0;" x1="285.5" x2="718" y1="196.9922" y2="196.9922"/><text fill="#000000" font-family="sans-serif" font-size="13" font-weight="bold" lengthAdjust="spacing" textLength="9" x="292.5" y="191.9263">2</text><text fill="#000000" font-family="sans-serif" font-size="13" lengthAdjust="spacing" textLength="316" x="305.5" y="191.9263">GET: givenName, firstName &amp; Image from webID</text><polygon fill="#181818" points="712,222.125,722,226.125,712,230.125,716,226.125" style="stroke:#181818;stroke-width:1.0;"/><line style="stroke:#181818;stroke-width:1.0;" x1="285.5" x2="718" y1="226.125" y2="226.125"/><text fill="#000000" font-family="sans-serif" font-size="13" font-weight="bold" lengthAdjust="spacing" textLength="8" x="292.5" y="221.0591">3</text><text fill="#000000" font-family="sans-serif" font-size="13" lengthAdjust="spacing" textLength="386" x="304.5" y="221.0591">GET: Latest Location data from "/YourLocationHistory/Data/"</text><line style="stroke:#181818;stroke-width:1.0;" x1="286.5" x2="296.5" y1="255.2578" y2="251.2578"/><line style="stroke:#181818;stroke-width:1.0;" x1="286.5" x2="296.5" y1="255.2578" y2="259.2578"/><line style="stroke:#181818;stroke-width:1.0;stroke-dasharray:2.0,2.0;" x1="285.5" x2="723" y1="255.2578" y2="255.2578"/><text fill="#000000" font-family="sans-serif" font-size="13" font-weight="bold" lengthAdjust="spacing" textLength="9" x="302.5" y="250.1919">4</text><text fill="#000000" font-family="sans-serif" font-size="13" lengthAdjust="spacing" textLength="201" x="315.5" y="250.1919">Latest Location triple is fetched</text><polygon fill="#181818" points="44.5,280.3906,34.5,284.3906,44.5,288.3906,40.5,284.3906" style="stroke:#181818;stroke-width:1.0;"/><line style="stroke:#181818;stroke-width:1.0;" x1="38.5" x2="284.5" y1="284.3906" y2="284.3906"/><text fill="#000000" font-family="sans-serif" font-size="13" font-weight="bold" lengthAdjust="spacing" textLength="9" x="50.5" y="279.3247">5</text><text fill="#000000" font-family="sans-serif" font-size="13" lengthAdjust="spacing" textLength="215" x="63.5" y="279.3247">Displays Friend's Location on Map</text><!--MD5=[024201d0fd2d7c79a648663ce3d8095b]
@startuml
title 4. Fetch Friend's Location
skinparam actorStyle awesome
actor User1
participant "Location History App (User 1)"
database "Pod (User 1)"
database "Pod (User 2)"
autonumber 1 
"Pod (User 1)"<-"Location History App (User 1)":Reads "GrantedAccessTo" triple from \n Inbox for WebID and Location-Data-Container"
"Location History App (User 1)"->"Pod (User 2)": GET: givenName, firstName & Image from webID
"Location History App (User 1)"->"Pod (User 2)": GET: Latest Location data from "/YourLocationHistory/Data/"
"Location History App (User 1)"<<- -"Pod (User 2)": Latest Location triple is fetched
User1<-"Location History App (User 1)":Displays Friend's Location on Map
@enduml

PlantUML version 1.2022.6beta5(Unknown compile time)
(GPL source distribution)
Java Runtime: Java(TM) SE Runtime Environment
JVM: Java HotSpot(TM) 64-Bit Server VM
Default Encoding: UTF-8
Language: en
Country: US
--></g></svg>